<svg xmlns="http://www.w3.org/2000/svg" viewBox="0 0 128 128" role="img" aria-label="Counter-Terrorist">
  <defs>
    <radialGradient id="ct-bg" cx="50%" cy="42%" r="58%">
      <stop offset="0%" stop-color="#6f8fbf"/>
      <stop offset="100%" stop-color="#2f4f78"/>
    </radialGradient>
  </defs>
  <circle cx="64" cy="64" r="62" fill="url(#ct-bg)" stroke="#1a2a42" stroke-width="4"/>
  <path fill="#d8e6f5" d="M64 24c-8 10-22 14-30 14 2 18 10 32 30 42 20-10 28-24 30-42-8 0-22-4-30-14Z"/>
  <path fill="#9eb6d4" d="M64 34c-5 6-14 9-19 9 1 11 6 20 19 27 13-7 18-16 19-27-5 0-14-3-19-9Z"/>
  <path fill="#1a2a42" d="M64 48v34M52 58h24M48 72h32"/>
  <rect x="58" y="78" width="12" height="18" rx="2" fill="#d8e6f5"/>
  <circle cx="64" cy="88" r="3" fill="#1a2a42"/>
</svg>
